<?xml version="1.0" encoding="UTF-8" standalone="no"?>
<svg
   xmlns:dc="http://purl.org/dc/elements/1.1/"
   xmlns:cc="http://creativecommons.org/ns#"
   xmlns:rdf="http://www.w3.org/1999/02/22-rdf-syntax-ns#"
   xmlns:svg="http://www.w3.org/2000/svg"
   xmlns="http://www.w3.org/2000/svg"
   xmlns:sodipodi="http://sodipodi.sourceforge.net/DTD/sodipodi-0.dtd"
   xmlns:inkscape="http://www.inkscape.org/namespaces/inkscape"
   id="svg8"
   version="1.1"
   viewBox="-100 -100 650 650"
   height="450"
   width="450"
   sodipodi:docname="appiconfg.svg"
   inkscape:version="0.92.4 (5da689c313, 2019-01-14)">
  <sodipodi:namedview
     pagecolor="#ffffff"
     bordercolor="#666666"
     borderopacity="1"
     objecttolerance="10"
     gridtolerance="10"
     guidetolerance="10"
     inkscape:pageopacity="0"
     inkscape:pageshadow="2"
     inkscape:window-width="2560"
     inkscape:window-height="1377"
     id="namedview7"
     showgrid="false"
     inkscape:zoom="0.52444444"
     inkscape:cx="155.76925"
     inkscape:cy="6.5261921"
     inkscape:window-x="-8"
     inkscape:window-y="-8"
     inkscape:window-maximized="1"
     inkscape:current-layer="svg8" />
  <defs
     id="defs2" />
  <metadata
     id="metadata5">
    <rdf:RDF>
      <cc:Work
         rdf:about="">
        <dc:format>image/svg+xml</dc:format>
        <dc:type
           rdf:resource="http://purl.org/dc/dcmitype/StillImage" />
        <dc:title />
      </cc:Work>
    </rdf:RDF>
  </metadata>
  <g
     transform="matrix(2.7634343,0,0,2.7727214,-1141.2222,137.95546)"
     id="layer1">
    <path
       id="path49"
       d="m 401.95945,148.31575 -1.54904,-0.22626 -2.02284,-0.55037 -2.02283,-0.55036 -2.91042,-1.4362 -2.91042,-1.43619 -1.7333,-1.30845 -1.73331,-1.30845 -1.99611,-2.0893 -1.99611,-2.0893 -1.08648,-1.59993 -1.08649,-1.59992 -1.05815,-2.0838 -1.05815,-2.08381 -0.6367,-1.98437 -0.63669,-1.98438 -0.36842,-1.85208 -0.36842,-1.85208 v -91.942705 -91.9427 l 0.7142,-2.58692 0.7142,-2.58693 1.17128,-2.4726 1.17128,-2.4726 1.12376,-1.65481 1.12377,-1.65481 1.86659,-1.96504 1.86659,-1.96503 1.73875,-1.32117 1.73875,-1.32116 2.65204,-1.31044 2.65205,-1.31044 2.63962,-0.72757 2.63962,-0.72756 92.29182,-0.0691 92.29182,-0.0691 2.5613,0.38524 2.5613,0.38525 2.11667,0.70974 2.11666,0.70974 1.5875,0.7902 1.5875,0.7902 1.5875,1.06567 1.5875,1.06567 1.68147,1.46452 1.68146,1.46452 1.84599,2.38854 1.84598,2.38854 1.30124,2.66411 1.30123,2.6641 0.72756,2.63962 0.72757,2.63962 v 92.20729 92.207275 l -0.48878,2.11667 -0.48878,2.11667 -1.02716,2.64583 -1.02716,2.64583 -1.56083,2.41282 -1.56083,2.41283 -1.95031,2.06234 -1.95031,2.06235 -2.09401,1.55936 -2.09401,1.55936 -2.40391,1.163 -2.40391,1.16299 -2.27858,0.65467 -2.27859,0.65467 -2.04004,0.28374 -2.04004,0.28375 -90.4022,-0.0323 -90.4022,-0.0323 z m 18.21778,-37.71988 1.05834,-0.57213 0.83027,-0.88308 0.83028,-0.88308 0.49264,-0.92604 0.49264,-0.92604 0.083,-6.39407 0.083,-6.394065 -0.58195,-1.35278 -0.58195,-1.35278 -1.31269,-1.18022 -1.31269,-1.18022 -1.34524,-0.39949 -1.34523,-0.3995 h -7.4926 -7.49261 l -0.52916,-0.52916 -0.52917,-0.52917 v -2.0661 -2.06609 l 0.37534,-0.51359 0.37534,-0.51359 10.40643,-0.1323 10.40643,-0.13229 v -4.23333 -4.23333 l -12.02757,-0.0689 -12.02757,-0.0689 -1.43478,0.4171 -1.43478,0.4171 -1.40297,1.40297 -1.40297,1.40297 -0.43319,1.49011 -0.43318,1.49012 0.085,5.62223 0.085,5.62224 0.62694,1.38685 0.62694,1.38685 1.01478,0.91679 1.01479,0.9168 1.1364,0.60677 1.1364,0.60677 8.02544,0.13229 8.02544,0.1323 0.37508,0.51359 0.37508,0.51359 v 2.01997 2.019975 l -0.60908,0.5722 -0.60909,0.57221 -10.56956,0.0692 -10.56956,0.0692 -0.0737,3.82429 -0.0737,3.8243 0.13518,0.35229 0.13519,0.35229 13.16771,-0.0755 13.16772,-0.0755 z m 25.79688,-14.244535 0.13229,-14.81666 5.02708,-0.1323 5.02709,-0.13229 v -4.23333 -4.23333 h -14.68438 -14.68437 v 4.23333 4.23333 l 5.02708,0.13229 5.02708,0.1323 0.066,14.55208 0.066,14.552075 0.12665,0.33731 0.12665,0.33731 4.30526,-0.0727 4.30526,-0.0727 z m 40.61354,10.715625 v -4.10105 l -8.36032,-0.13229 -8.36032,-0.13229 -0.44589,-0.37044 -0.4459,-0.37045 0.075,-2.672255 0.075,-2.67226 8.20208,-0.1323 8.20208,-0.13229 v -4.23333 -4.23333 l -8.26822,-0.0699 -8.26823,-0.0699 v -2.73335 -2.73335 l 0.47961,-0.43404 0.47961,-0.43405 8.31779,-0.07 8.31778,-0.07 v -4.23333 -4.23333 H 475.60751 464.6273 l -1.21537,0.71449 -1.21536,0.71449 -0.73686,0.96607 -0.73686,0.96607 -0.36287,1.20576 -0.36289,1.20576 0.002,13.38555 0.002,13.385545 0.2598,0.93518 0.2598,0.93517 0.76936,1.21315 0.76935,1.21314 1.66339,0.83121 1.66338,0.8312 10.6013,-0.0691 10.60107,-0.0691 z m 14.35861,-1.91823 0.0711,-6.019265 h 6.03433 6.03433 l 0.64143,0.68204 0.64144,0.682045 0.13229,5.33722 0.13229,5.33723 h 4.36562 4.36563 v -5.95313 -5.953115 l -0.74442,-1.51596 -0.74443,-1.51595 -0.92074,-0.75896 -0.92075,-0.75895 0.96953,-0.7395 0.96953,-0.7395 0.69564,-1.48351 0.69564,-1.4835 v -5.68855 -5.68854 l -0.4651,-1.3313 -0.4651,-1.3313 -0.81844,-0.99291 -0.81844,-0.99291 -1.36229,-0.7185 -1.3623,-0.71849 H 505.10848 492.1439 l -0.0685,18.9177 -0.0685,18.917705 0.12882,0.33731 0.12883,0.33731 4.30526,-0.0727 4.30526,-0.0727 z m 0.17778,-15.357455 -0.13137,-0.34235 0.0735,-3.95713 0.0735,-3.95712 5.29167,-0.0775 5.29166,-0.0775 0.87466,0.15837 0.87465,0.15838 0.51441,0.51441 0.51441,0.51441 v 2.76568 2.76567 l -0.29376,0.64473 -0.29376,0.64474 -0.64473,0.29375 -0.64473,0.29376 h -5.6844 -5.6844 z m 53.99069,17.275685 v -4.10105 l -8.18556,-0.07 -8.18555,-0.07 -0.47955,-0.43398 -0.47955,-0.43399 v -2.733395 -2.7334 l 8.40052,-0.0699 8.40052,-0.0699 0.0734,-3.93291 0.0734,-3.9329 -0.30423,-0.36658 -0.30423,-0.36657 h -8.17808 -8.17808 l 0.0745,-3.10885 0.0745,-3.10885 8.59896,-0.1323 8.59896,-0.13229 v -4.23333 -4.23333 h -13.09681 -13.09687 l -0.0682,16.13089 -0.0682,16.130885 0.40952,1.40869 0.40952,1.40869 0.98162,1.08892 0.98161,1.08891 1.32292,0.61899 1.32292,0.61899 10.45104,-0.0652 10.45104,-0.0652 z m 35.32187,3.68338 1.19063,-0.53832 0.89229,-0.84493 0.8923,-0.84493 0.62647,-1.32291 0.62647,-1.32292 0.003,-14.005525 0.003,-14.00552 -0.55133,-1.13889 -0.55133,-1.13889 -1.18314,-1.04144 -1.18314,-1.04144 -1.22308,-0.41675 -1.22308,-0.41675 -11.26381,0.003 -11.2638,0.003 -1.32846,0.61862 -1.32846,0.61862 -0.86208,0.86208 -0.86207,0.86208 -0.4553,0.83182 -0.4553,0.83181 v 14.68438 14.684365 l 0.7145,1.21537 0.71449,1.21537 0.94008,0.71703 0.94007,0.71703 0.99127,0.36406 0.99126,0.36407 11.50937,0.0128 11.50938,0.0128 1.19062,-0.53833 z m -19.74825,-8.54246 -0.75696,-0.65085 -0.0758,-9.418235 -0.0758,-9.41824 0.65909,-0.65909 0.65909,-0.65909 h 6.77092 6.77093 l 0.64943,0.64944 0.64943,0.64943 v 9.49602 9.496005 l -0.55642,0.50403 -0.55644,0.50403 -6.69026,0.0787 -6.69026,0.0787 z m -154.52738,-41.574035 1.51886,-0.39561 1.10461,-0.56353 1.10461,-0.56353 1.4913,-1.42245 1.49128,-1.42245 0.67995,-1.25643 0.67995,-1.25642 0.43575,-1.5101 0.43575,-1.5101 -0.0817,-9.33781 -0.0816,-9.33783 -0.74064,-1.58749 -0.74065,-1.5875 -0.71456,-1.03953 -0.71456,-1.03952 -1.5533,-1.14538 -1.55329,-1.14537 -1.754,-0.53131 -1.754,-0.5313 -11.37708,0.0704 -11.37708,0.0704 -0.0685,18.38854 -0.0685,18.38854 0.12633,0.33073 0.12633,0.33073 h 10.93292 10.93292 z m -14.50793,-8.64586 -0.13567,-0.35354 0.0695,-9.65614 0.0695,-9.65613 h 6.00048 6.00049 l 0.73004,0.54551 0.73004,0.54552 0.54552,0.73001 0.54551,0.73 0.0828,6.91098 0.0828,6.91097 -0.43412,1.13672 -0.43411,1.13672 -0.83929,0.59866 -0.8393,0.59866 -6.01926,0.0878 -6.01926,0.0878 z m 54.83619,-4.98144 0.0641,-13.89062 0.56054,-0.46302 0.56055,-0.46302 h 2.98408 2.98409 l 0.56054,0.46302 0.56055,0.46302 0.0641,13.89062 0.0641,13.89063 h 4.23333 4.23333 l 0.0641,-13.89063 0.0641,-13.89062 0.56055,-0.46302 0.56054,-0.46302 h 2.98409 2.98408 l 0.56054,0.46302 0.56055,0.46302 0.0641,13.89062 0.0641,13.89063 4.16719,0.0729 4.16718,0.0729 -0.003,-16.08016 -0.003,-16.08015 -0.62287,-1.33763 -0.62287,-1.33764 -1.13157,-0.96857 -1.13156,-0.96858 -1.26237,-0.41929 -1.26237,-0.41929 -6.35249,0.0797 -6.35248,0.0797 -1.19629,0.84375 -1.1963,0.84376 -0.66116,-0.52007 -0.66115,-0.52006 -0.93301,-0.38984 -0.93301,-0.38983 h -5.78131 -5.78131 l -1.33229,0.39565 -1.3323,0.39564 -1.24033,1.09179 -1.24033,1.09178 -0.58425,1.09226 -0.58413,1.09225 -0.0742,15.86163 -0.0742,15.86164 0.13463,0.35084 0.13463,0.35084 4.17291,-0.0729 4.1729,-0.0729 z m 63.7005,13.3185 1.05833,-0.57213 0.83138,-0.88308 0.83137,-0.88308 0.62383,-1.19062 0.62384,-1.19063 0.0781,-12.78967 0.0781,-12.78967 -0.3976,-1.36554 -0.3976,-1.36553 -0.79157,-1.07514 -0.79155,-1.07514 -1.40247,-0.77694 -1.40245,-0.77695 -9.61776,-0.0786 -9.61776,-0.0786 -1.347,0.4474 -1.34701,0.44741 -1.22798,1.22797 -1.22798,1.22798 -0.44111,1.29459 -0.44111,1.2946 v 12.87031 12.87032 l 0.44111,1.2946 0.44111,1.29459 1.2496,1.24959 1.24959,1.24959 1.28586,0.40254 1.28585,0.40254 9.6573,-0.0553 9.65729,-0.0553 z m -16.53646,-8.20756 -0.39687,-0.14473 -0.33073,-0.417 -0.33073,-0.41701 v -8.94527 -8.94526 l 0.52917,-0.52917 0.52916,-0.52916 h 5.36509 5.36509 l 0.58803,0.41187 0.58804,0.41188 v 9.21302 9.21302 l -0.42636,0.35384 -0.42636,0.35385 -5.32833,0.0574 -5.32832,0.0574 z m 33.60208,-5.50781 0.1323,-14.2875 5.45429,-0.0714 5.4543,-0.0714 0.63112,0.51091 0.63112,0.51091 0.13229,13.84799 0.13229,13.848 h 4.23333 4.23334 l 0.0683,-15.43513 0.0683,-15.43512 -0.51259,-1.15881 -0.5126,-1.15881 -1.21349,-1.29731 -1.21349,-1.29732 -1.64949,-0.76188 -1.6495,-0.76187 h -11.64169 -11.64167 l -0.0685,18.38854 -0.0685,18.38854 0.12886,0.33731 0.12885,0.33731 4.30525,-0.0727 4.30526,-0.0727 z m 52.53792,14.03051 1.30479,-0.38927 0.99245,-0.82083 0.99245,-0.82083 0.72734,-1.23729 0.72734,-1.23729 v -13.89063 -13.89062 l -0.49264,-0.92604 -0.49264,-0.92604 -0.83027,-0.88309 -0.83028,-0.88308 -1.05833,-0.57212 -1.05834,-0.57213 h -10.9802 -10.98021 l -1.4458,0.79375 -1.4458,0.79375 -0.8621,1.1356 -0.86211,1.13561 -0.28117,1.0442 -0.28118,1.04421 0.0755,13.16602 0.0755,13.16602 0.81602,1.45521 0.81601,1.45521 1.26486,0.8602 1.26486,0.86019 0.82954,0.24042 0.82955,0.24042 9.94,0.0239 9.93999,0.0239 1.3048,-0.38927 z m -16.68688,-8.53714 -0.79375,-0.11624 -0.33073,-0.27357 -0.33072,-0.27356 v -9.21302 -9.21302 l 0.58803,-0.41188 0.58804,-0.41187 h 5.96768 5.96767 l 0.58804,0.41187 0.58803,0.41188 v 9.21302 9.21302 l -0.41697,0.34606 -0.41698,0.34606 -5.60229,0.0437 -5.6023,0.0437 z m -128.85207,-7.87462 v -3.96875 h -7.80521 -7.80521 l -0.074,3.69142 -0.074,3.69143 0.13334,0.34748 0.13334,0.34747 7.74583,-0.0702 7.74583,-0.0702 z m 12.7,-34.00353 2.64583,-0.5616502 2.64583,-1.03501 2.64584,-1.035 2.10631,-1.20149 2.10632,-1.20149 1.9118,-1.46431 1.91179,-1.46432 2.33189,-2.44434004 2.33189,-2.44433996 1.32151,-1.97226 1.32152,-1.97226 1.11485,-2.2152 1.11485,-2.2151998 0.79938,-2.41501 0.79937,-2.41501 0.42813,-1.98437 0.42812,-1.98438 0.13883,-3.70416 0.13884,-3.70417 -0.44526,-3.02333 -0.44526,-3.02333 -0.81085,-2.53132 -0.81086,-2.53132 -1.01219,-2.13049 -1.01219,-2.13048 -1.31112,-2.00843 -1.31112,-2.00844 -1.87069,-2.12292 -1.87069,-2.12292 -2.18905,-1.75917 -2.18904,-1.75918 -2.1811,-1.32387 -2.18109,-1.32387 -2.46149,-1.0285 -2.46149,-1.0285 -2.51482,-0.6534 -2.51483,-0.65341 -3.17674,-0.31813 -3.17673,-0.31813 -3.15961,0.30613 -3.1596,0.30613 -2.54219,0.64014 -2.5422,0.64014 -2.08801,0.82683 -2.08802,0.82683 -1.85208,1.01974 -1.85208,1.01974 -1.98438,1.38622 -1.98437,1.38623 -2.51354,2.53644 -2.51355,2.53643 -1.40426,2.04722 -1.40427,2.04722 -1.42655,2.97748 -1.42656,2.97747 -0.68848,2.38125 -0.68849,2.38125 -0.38174,2.51354 -0.38173,2.51354 -0.002,2.61188 -0.002,2.61188 0.41624,2.80322 0.41624,2.80322 0.80748,2.5208 0.80749,2.5208 1.04021,2.1894698 1.04022,2.18948 1.5987,2.39009 1.59871,2.39009 2.2692,2.38452996 2.2692,2.38455004 2.26868,1.7111 2.26867,1.7111 3.43959,1.70273 3.43958,1.70274 2.39137,0.6728 2.39137,0.6728002 2.37113,0.38651 2.37113,0.3865 3.96875,-0.11075 3.96875,-0.11075 2.64583,-0.56165 z m -12.56771,-19.1333602 -1.98438,-0.58875 -1.5875,-0.9002998 -1.5875,-0.90029 -1.99602,-2.00251 -1.99602,-2.00251 -0.958,-1.85208 -0.958,-1.85209 -0.46673,-1.71979 -0.46672,-1.71979 -0.003,-2.77812 -0.003,-2.77813 0.73078,-2.11413 0.73078,-2.11412 0.90354,-1.48739 0.90354,-1.48739 1.92125,-1.82463 1.92124,-1.82462 1.98438,-0.97884 1.98437,-0.97884 1.7198,-0.40413 1.71979,-0.40413 2.47535,-0.004 2.47535,-0.004 1.60313,0.41541 1.60314,0.41542 1.64163,0.80043 1.64163,0.80042 1.48761,1.16758 1.48761,1.16758 1.20164,1.51918 1.20164,1.51919 0.77919,1.5875 0.77918,1.5875 0.40259,1.57694 0.4026,1.57694 v 2.39713 2.39712 l -0.54338,1.97906 -0.54338,1.97906 -1.11027,1.95246 -1.11026,1.95246 -2.07382,1.9514 -2.07382,1.95141 -1.89493,0.90551 -1.89493,0.9055198 -1.62569,0.41614 -1.6257,0.41614 -2.60764,-0.0142 -2.60764,-0.0142 -1.98437,-0.58874 z m 7.29353,-12.2114498 1.12231,-0.65772 0.55458,-1.14561 0.55458,-1.14561 v -0.851 -0.85101 l -0.36429,-0.85139 -0.36429,-0.8514 -0.76019,-0.71077 -0.76019,-0.71077 -0.74483,-0.28142 -0.74483,-0.28142 h -0.89159 -0.89159 l -0.74483,0.28081 -0.74483,0.28082 -0.85491,0.82459 -0.85491,0.82459 -0.29664,0.89881 -0.29663,0.89881 0.17724,1.18195 0.17725,1.18195 0.83709,0.9534 0.83709,0.95339 0.79867,0.348 0.79867,0.348 1.16738,0.0104 1.16737,0.0103 1.12232,-0.65772 z m 68.97682,30.8704498 1.75952,-0.86621 0.92825,-1.08445 0.92825,-1.08445 0.41567,-1.25147 0.41567,-1.25148 -0.0761,-12.53577 -0.076,-12.5357798 -0.59309,-1.10958 -0.5931,-1.10959 -0.9944,-0.97815 -0.99441,-0.97814 -1.41406,-0.65509 -1.41405,-0.65508 -2.15782,-0.13213 -2.15782,-0.13213 -1.08452,0.2947 -1.08451,0.29469 -0.89583,0.6037 -0.89583,0.6037 -0.59499,1.05051 -0.59499,1.05051 -0.004,14.8933498 -0.004,14.89335 0.50101,0.98165 0.50101,0.98165 0.53981,0.48817 0.5398,0.4881802 1.0097,0.37464 1.00971,0.37463 2.66115,-0.0739 2.66115,-0.0739 z m 40.35529,0.23858 0.98164,-0.50494 0.73282,-0.77175 0.73281,-0.77175 0.25938,-0.90438 0.25937,-0.90438 -0.0116,-14.15695 -0.0116,-14.1569598 -0.3601,-1.0097 -0.36011,-1.0097 -0.48818,-0.53981 -0.48817,-0.5398 -1.05834,-0.56716 -1.05833,-0.56716 -2.77813,0.0135 -2.77812,0.0135 -1.22301,0.55203 -1.22301,0.55203 -1.13361,1.022 -1.13362,1.022 -0.61735,1.32292 -0.61736,1.32291 -0.003,12.7746498 -0.003,12.77464 0.4094,0.98369 0.4094,0.98369 1.11196,1.1457 1.11195,1.1457 0.79204,0.41577 0.79203,0.4157602 0.66318,0.20173 0.66317,0.20173 2.72252,0.0228 2.72252,0.0228 0.98164,-0.5049402 z m -54.42655,-24.7627698 0.15431,-16.93334 0.42762,-1.71979 0.42763,-1.71979 0.52662,-1.51649 0.52663,-1.51649 1.13735,-2.18768 1.13736,-2.18767 1.51862,-2.01667 1.51862,-2.01667 1.65943,-1.53741 1.65942,-1.53741 1.48404,-1.09338 1.48404,-1.09337 2.17254,-1.13029 2.17255,-1.13028 2.29654,-0.77867 2.29654,-0.77867 2.21747,-0.3889 2.21747,-0.38891 h 3.23798 3.23797 l 2.26994,0.39585 2.26995,0.39584 2.58043,0.92229 2.58043,0.92228 2.1296,1.23439 2.12959,1.2344 1.45521,1.11673 1.45521,1.11673 1.88555,1.98568 1.88555,1.98569 1.12376,1.65481 1.12376,1.65481 1.13875,2.41369 1.13875,2.41369 0.59933,2.11666 0.59934,2.11667 0.1474,17.4625 0.14739,17.4624998 4.64846,0.0721 4.64846,0.072 0.90149,-0.60752 0.9015,-0.60752 0.60161,-0.89272004 0.60161,-0.89273 V -7.9441652 -15.191625 l -0.53176,-1.04234 -0.53177,-1.04234 -0.8573,-0.44659 -0.8573,-0.44659 -0.79375,-0.16458 -0.79375,-0.16458 -0.15412,-7.00105 -0.15412,-7.00106 -0.44068,-2.11447 -0.44068,-2.11448 -0.8165,-2.45084 -0.81649,-2.45084 -1.29038,-2.53447 -1.29038,-2.53447 -1.53166,-2.13435 -1.53165,-2.13435 -2.27287,-2.27524 -2.27287,-2.27523 -1.62841,-1.19063 -1.62841,-1.19062 -2.26729,-1.37565 -2.26729,-1.37565 -2.74317,-1.07253 -2.74317,-1.07252 -2.72993,-0.64856 -2.72992,-0.64856 -3.04271,-0.27322 -3.04271,-0.27321 -2.95638,0.26049 -2.95638,0.26048 -1.93841,0.40354 -1.93841,0.40353 -2.11667,0.67404 -2.11667,0.67404 -2.70372,1.2841 -2.70373,1.2841 -2.45565,1.67355 -2.45565,1.67356 -2.34479,2.24924 -2.3448,2.24923 -1.29365,1.62555 -1.29365,1.62555 -1.43392,2.4266 -1.43392,2.4266 -0.95836,2.39443 -0.95835,2.39443 -0.65148,2.68154 -0.65148,2.68154 -0.16084,2.11667 -0.16084,2.11667 -0.0361,5.28056 -0.0361,5.28056 -0.89355,0.18301 -0.89355,0.18301 -0.6776,0.5059 -0.6776,0.5059 -0.54552,0.7301 -0.54551,0.7301 -0.0775,7.4658098 -0.0775,7.46581996 0.61295,0.90957 0.61296,0.90956004 0.90169,0.60765 0.9017,0.60765 4.51597,-0.0722 4.51597,-0.0722 z"
       style="fill:#4d60d3;stroke-width:0.26458332"
       inkscape:connector-curvature="0" />
  </g>
</svg>
